<?xml version="1.0" encoding="UTF-8"?>
<svg id="Ebene_1" data-name="Ebene 1" xmlns="http://www.w3.org/2000/svg" xmlns:xlink="http://www.w3.org/1999/xlink" viewBox="0 0 315 491.89">
  <defs>
    <style>
      .cls-1 {
        fill: none;
      }

      .cls-2 {
        clip-path: url(#clippath-1);
      }

      .cls-3 {
        fill: #fff;
      }

      .cls-4 {
        fill: #5f85a6;
        stroke: #5f85a6;
        stroke-width: 7px;
      }

      .cls-5 {
        clip-path: url(#clippath);
      }
    </style>
    <clipPath id="clippath">
      <rect class="cls-1" x="-106" y="-94.89" width="595.28" height="841.89"/>
    </clipPath>
    <clipPath id="clippath-1">
      <rect class="cls-1" x="19.04" y="15.68" width="279.43" height="460.84"/>
    </clipPath>
  </defs>
  <g class="cls-5">
    <rect class="cls-3" x="-106" y="-94.89" width="596" height="842"/>
  </g>
  <g class="cls-2">
    <path class="cls-3" d="M46.47,20.18h224.57c6.73,0,10.77,0,13.46,1.12,3.88,1.41,6.94,4.47,8.35,8.35,1.12,2.69,1.12,6.73,1.12,13.46v405.98c0,6.73,0,10.77-1.12,13.46-1.41,3.88-4.47,6.94-8.35,8.35-2.69,1.12-6.73,1.12-13.46,1.12H46.47c-6.73,0-10.77,0-13.46-1.12-3.88-1.41-6.94-4.47-8.35-8.35-1.12-2.69-1.12-6.73-1.12-13.46V43.11c0-6.73,0-10.77,1.12-13.46,1.41-3.88,4.47-6.94,8.35-8.35,2.69-1.12,6.73-1.12,13.46-1.12Z"/>
    <path class="cls-4" d="M46.47,20.18h224.57c6.73,0,10.77,0,13.46,1.12,3.88,1.41,6.94,4.47,8.35,8.35,1.12,2.69,1.12,6.73,1.12,13.46v405.98c0,6.73,0,10.77-1.12,13.46-1.41,3.88-4.47,6.94-8.35,8.35-2.69,1.12-6.73,1.12-13.46,1.12H46.47c-6.73,0-10.77,0-13.46-1.12-3.88-1.41-6.94-4.47-8.35-8.35-1.12-2.69-1.12-6.73-1.12-13.46V43.11c0-6.73,0-10.77,1.12-13.46,1.41-3.88,4.47-6.94,8.35-8.35,2.69-1.12,6.73-1.12,13.46-1.12Z"/>
  </g>
  <path class="cls-3" d="M244.05,94.14c0,.96.39,1.52,1.52,1.52s1.72-.76,1.72-1.52c0-1.14-.39-1.7-1.72-1.7-.94,0-1.52.76-1.52,1.7ZM244.05,84.26c0,.94.39,1.52,1.52,1.52s1.72-.76,1.72-1.52c0-1.14-.39-1.72-1.72-1.72-.94,0-1.52.76-1.52,1.72ZM235.37,88.05c0,1.15,4.38,6.65,4.38,6.65.76,0,1.33-1.33,1.33-1.33,0-.94-3.42-5.32-3.42-5.32,0,0,3.42-4.36,3.42-5.52,0,0-.57-.94-1.52-.94,0,0-4.18,5.52-4.18,6.46ZM230.44,88.05c0,1.15,4.36,7.41,4.36,7.41.76,0,1.33-1.33,1.33-1.33,0-1.14-3.62-6.08-3.62-6.08,0,0,3.62-4.93,3.62-6.08,0,0-.57-1.14-1.52-1.14,0,0-4.17,6.28-4.17,7.22ZM227.76,73.99c-1.9,0-2.47,0-2.47,1.14v20.34q2.47,0,2.47-.37v-21.1ZM213.26,95.47q2.29,0,2.29-.37v-11.6c.75-.76,1.7-.96,2.27-.96,1.52,0,1.72.76,1.72,4.18v8.74q2.47,0,2.47-.37v-8.74c0-5.14-.57-5.9-3.23-5.9-.96,0-2.29.39-3.23,1.15v-7.61c-1.91,0-2.29,0-2.29,1.14v20.34ZM207.55,88.62v4.75c-.37.39-1.14.58-1.7.58-1.14,0-1.72-.26-1.72-2.68,0-2.66.96-3.03,2.09-3.03.39,0,.96.19,1.33.37ZM201.66,81.79c0,.18,0,1.14.19,1.51.94-.37,2.85-.57,4.18-.57.94,0,1.51.39,1.51,1.72v2.47c-.57-.37-1.51-.37-2.27-.37-1.72,0-3.81.75-3.81,4.74,0,4.57,2.09,4.57,4.18,4.57,1.9,0,3.42-.39,4.18-.96,0,0,.19-4.18.19-9.31v-1.72c0-2.47-1.15-3.42-3.62-3.42-2.09,0-4.18.39-4.56.76-.19.19-.19.39-.19.58ZM191.27,80.84c-.37,0-.37.5-.37,2.09h5.71l-5.71,10.45c-.19.39-.19.52-.19.96,0,.76.39,1.14.39,1.14h7.59c.39,0,.58-.37.58-1.51v-.96s-1.33.19-3.24.19h-2.47l5.52-10.46c.19-.57.19-.94.19-1.14,0-.57-.19-.76-.19-.76h-7.8ZM184.31,88.05c0-1.01-4.18-6.65-4.18-6.65,0,0-1.33.39-1.33,1.14,0,1.15,3.62,5.52,3.42,5.52,0,0-3.42,4.38-3.42,5.32,0,1.15,1.33,1.52,1.33,1.52,0,0,4.18-5.69,4.18-6.85ZM189.43,88.05c0-1.01-4.18-7.22-4.18-7.22,0,0-1.51.37-1.51,1.14,0,1.15,3.42,6.08,3.42,6.08,0,0-3.42,4.95-3.42,6.08,0,.96,1.33,1.33,1.33,1.33,0,0,4.36-6.26,4.36-7.41ZM161.68,95.47c2.48,0,2.29,0,2.29-.37v-11.97c.76-.39,1.7-.58,2.27-.58,1.52,0,1.72.76,1.72,3.05v9.88q2.47,0,2.47-.37v-9.31c0-3.99-.37-5.34-3.99-5.34-1.52,0-3.6.39-4.75.96v14.06ZM154.83,82.54c1.15,0,1.52.76,1.52,2.85v1.9c-1.14.19-2.85.39-3.99.39.19-4.18,1.14-5.14,2.47-5.14ZM155.03,80.45c-2.66,0-5.13.76-5.13,8.56,0,5.89,1.9,6.85,4.56,6.85,2.29,0,4.18-.57,4.18-1.15s-.19-1.51-.19-2.09c-1.14.52-2.29.96-3.62.96-1.7,0-2.47-.57-2.47-3.99,1.33,0,3.99-.19,6.08-.57.19-.96.37-2.47.37-3.81,0-3.23-1.33-4.75-3.8-4.75ZM146.79,73.99c-1.9,0-2.47,0-2.47,1.14v20.34q2.47,0,2.47-.37v-21.1ZM134.75,83.3c.57-.57,1.14-.76,1.9-.76,1.52,0,2.09.52,2.09,4.38,0,5.89-1.7,6.85-2.66,6.85-.76,0-1.14-.26-1.33-.39v-10.07ZM132.29,95.09c.76.5,1.9.76,3.6.76,2.29,0,5.52-1.15,5.52-9.51,0-4.56-1.14-5.9-3.8-5.9-1.14,0-2.09.39-2.85.96v-7.41c-2.09,0-2.47,0-2.47,1.14v19.97ZM126.58,88.62v4.75c-.37.39-1.14.52-1.7.52-1.15,0-1.72-.19-1.72-2.66,0-2.68.96-3.05,2.09-3.05.39,0,.96.26,1.33.37v.06ZM120.69,81.79c0,.18,0,1.14.19,1.51.94-.37,2.84-.57,4.17-.57.96,0,1.52.39,1.52,1.72v2.47c-.57-.37-1.52-.37-2.27-.37-1.72,0-3.81.75-3.81,4.74,0,4.57,2.09,4.57,4.18,4.57,1.9,0,3.42-.39,4.18-.96,0,0,.19-4.18.19-9.31v-1.72c0-2.47-1.15-3.42-3.62-3.42-2.09,0-4.18.39-4.56.76-.19.19-.19.39-.19.52v.06ZM115.04,75.89c0,1.33.39,1.72,1.15,1.72.94,0,1.33-.57,1.33-1.9,0-1.15-.19-1.72-1.15-1.72s-1.33.76-1.33,1.9ZM117.53,80.84c-1.91,0-2.48,0-2.48,1.14v13.5q2.48,0,2.48-.37v-14.26ZM106.43,95.47q2.47,0,2.47-.37v-11.6c.57-.57,1.15-.76,1.91-.76.57,0,.94,0,1.33.39.18-.58.37-1.15.37-1.72s-.57-1.01-2.09-1.01-2.66.37-3.99,1.33v13.74ZM100.72,88.62v4.75c-.37.39-1.14.52-1.7.52-1.14,0-1.72-.19-1.72-2.66,0-2.68.96-3.05,2.09-3.05.39,0,.96.26,1.33.37v.06ZM94.83,81.79c0,.18,0,1.14.19,1.51.94-.37,2.85-.57,4.18-.57.94,0,1.51.39,1.51,1.72v2.47c-.57-.37-1.51-.37-2.27-.37-1.72,0-3.81.75-3.81,4.74,0,4.57,2.09,4.57,4.18,4.57,1.9,0,3.42-.39,4.18-.96,0,0,.19-4.18.19-9.31v-1.72c0-2.47-1.15-3.42-3.62-3.42-2.09,0-4.18.39-4.56.76-.19.19-.19.39-.19.52v.06ZM82.1,75.71s2.85,13.67,3.99,18.43c.39.96.76,1.72,1.52,1.72.94,0,1.33-.26,1.9-.26.19,0,4.56-20.71,4.56-20.71h-2.09c-.37,0-.57.24-.57.76l-2.27,10.64c-.39,2.66-.76,4.75-.96,6.65-.19-1.9-.57-3.99-1.14-6.65l-2.48-11.4h-1.9c-.76,0-.76.24-.57.76v.06ZM245.07,60.36q2.47,0,2.47-.37v-11.6c.57-.57,1.15-.76,1.9-.76.58,0,.96,0,1.33.37.19-.57.39-1.14.39-1.7s-.57-.96-2.09-.96-2.66.39-3.99,1.33v13.69ZM238.16,47.44c1.14,0,1.52.76,1.52,2.85v1.9c-1.14.19-2.85.39-3.99.39.18-4.18,1.14-5.14,2.47-5.14ZM238.35,45.34c-2.66,0-5.14.76-5.14,8.56,0,5.89,1.91,6.85,4.57,6.85,2.27,0,4.17-.58,4.17-1.15s-.18-1.51-.18-2.09c-1.15.58-2.29.96-3.62.96-1.7,0-2.47-.57-2.47-3.99,1.33,0,3.99-.19,6.08-.57.18-.96.37-2.48.37-3.81,0-3.23-1.33-4.75-3.8-4.75ZM227.76,45.93c-.57-.39-1.33-.58-2.08-.58-2.68,0-4.57,2.48-4.57,8.18,0,6.47,1.9,7.23,4.75,7.23,1.9,0,3.24-.19,4.18-.76v-21.1c-1.9,0-2.29,0-2.29,1.14v5.9ZM227.76,58.27c-.57.39-1.14.39-1.9.39-1.33,0-2.09-.57-2.09-5.32s1.33-5.9,2.48-5.9c.76,0,1.14,0,1.51.39v10.45ZM207.49,59.8c2.68.19,3.42.57,3.42,1.9,0,.96-.94,2.29-3.03,2.29-1.9,0-2.47-.76-2.47-1.72s.75-1.9,1.51-2.47h.57ZM208.25,47.06c1.52,0,2.09.94,2.09,3.03,0,2.48-.57,4.01-2.09,4.01-1.9,0-2.27-1.35-2.27-3.42,0-2.68.94-3.62,2.27-3.62ZM208.44,45.34c-3.03,0-4.95,1.52-4.95,5.52,0,1.72.39,3.42,1.72,4.38-.76.57-1.72,1.9-1.72,2.66s.58,1.14,1.72,1.52c-1.33.75-2.29,2.09-2.29,3.42,0,1.51.76,3.23,4.75,3.23s5.71-2.29,5.71-4.75c0-2.29-1.9-3.05-3.62-3.42-2.29-.19-3.8-.39-3.8-.76s.37-.96.76-1.33h1.33c3.42,0,4.75-1.9,4.75-5.13,0-1.33-.39-2.48-1.15-3.24.39,0,.76.19,1.15.19s.75-.37.75-.96-.18-.94-.18-1.14h-3.62c-.37-.19-.94-.19-1.33-.19ZM191.59,60.36c2.47,0,2.29,0,2.29-.37v-11.99c.75-.37,1.7-.57,2.27-.57,1.52,0,1.72.76,1.72,3.05v9.88q2.47,0,2.47-.37v-9.31c0-4.01-.37-5.34-3.99-5.34-1.52,0-3.62.39-4.75.96v14.06ZM188.1,45.73q-2.47,0-2.47.57v11.79c-.57.57-1.33.57-2.09.57-1.52,0-1.72-.76-1.72-3.05v-9.88q-2.47,0-2.47.57v9.13c0,3.6.57,5.32,4.38,5.32,1.51,0,3.23-.19,4.36-.96v-14.06ZM170.81,60.36q2.47,0,2.47-.37v-11.6c.57-.57,1.14-.76,1.9-.76.57,0,.96,0,1.33.37.19-.57.39-1.14.39-1.7s-.57-.96-2.09-.96-2.66.39-3.99,1.33v13.69ZM163.9,47.44c1.14,0,1.52.76,1.52,2.85v1.9c-1.15.19-2.85.39-3.99.39.18-4.18,1.14-5.14,2.47-5.14ZM164.1,45.34c-2.66,0-5.14.76-5.14,8.56,0,5.89,1.9,6.85,4.57,6.85,2.27,0,4.17-.58,4.17-1.15s-.18-1.51-.18-2.09c-1.15.58-2.29.96-3.62.96-1.72,0-2.47-.57-2.47-3.99,1.33,0,3.99-.19,6.08-.57.18-.96.37-2.48.37-3.81,0-3.23-1.33-4.75-3.8-4.75ZM153.39,40.79c0,1.33.31,1.72,1.07,1.72.96,0,1.33-.57,1.33-1.91,0-1.14-.19-1.7-1.14-1.7-.89,0-1.33.76-1.33,1.9h.06ZM155.86,45.73c-1.9,0-2.47,0-2.47,1.14v13.5q2.47,0,2.47-.37v-14.26ZM146.61,45.34c-3.05,0-4.75,1.15-4.75,3.24,0,1.14.57,2.09,1.7,3.23l2.85,2.85c.94.76,1.33,1.51,1.33,2.09,0,1.33-.96,1.9-2.47,1.9-1.15,0-2.09-.19-2.85-.76-.39.57-.39,1.33-.39,1.7,0,.76,1.33,1.15,3.42,1.15,3.05,0,4.95-1.33,4.95-3.99,0-1.52-.57-2.48-1.72-3.62l-3.03-2.66c-.76-.76-.96-1.14-.96-1.72,0-.94.96-1.33,2.29-1.33,1.14,0,2.09.19,3.03.76.19-.37.39-.94.39-1.33,0-.57-.76-1.52-3.8-1.52ZM136.47,40.79c0,1.33.31,1.72,1.07,1.72.96,0,1.33-.57,1.33-1.91,0-1.14-.19-1.7-1.07-1.7-.96,0-1.33.76-1.33,1.9ZM138.94,45.73c-1.9,0-2.47,0-2.47,1.14v13.5q2.47,0,2.47-.37v-14.26ZM132.98,38.89c-1.9,0-2.48,0-2.48,1.14v20.34q2.48,0,2.48-.37v-21.1ZM124.81,53.52v4.75c-.39.39-1.14.57-1.72.57-1.14,0-1.7-.18-1.7-2.66,0-2.66.94-3.03,2.09-3.03.37,0,.94.19,1.33.37ZM118.92,46.67c0,.19,0,1.15.18,1.52.96-.37,2.85-.57,4.18-.57.96,0,1.52.37,1.52,1.72v2.47c-.57-.39-1.52-.39-2.29-.39-1.7,0-3.8.76-3.8,4.75,0,4.57,2.09,4.57,4.18,4.57,1.9,0,3.42-.39,4.17-.96,0,0,.19-4.18.19-9.31v-1.72c0-2.47-1.14-3.42-3.6-3.42-2.09,0-4.18.39-4.57.76-.18.19-.18.39-.18.57ZM113.28,40.79c0,1.33.37,1.72,1.14,1.72.96,0,1.33-.57,1.33-1.91,0-1.14-.18-1.7-1.14-1.7s-1.33.76-1.33,1.9ZM115.74,45.73c-1.9,0-2.47,0-2.47,1.14v13.5q2.47,0,2.47-.37v-14.26ZM105.04,56.18c0,2.66,0,4.57,2.85,4.57,1.14,0,2.47-.19,2.47-.96,0-.57,0-1.14-.19-1.52-.57.39-.75.57-1.7.57s-.96-1.14-.96-2.47v-8.55h2.48c.57,0,.57-.19.57-2.09h-3.05v-5.32c-1.9,0-2.47,0-2.47.94v4.38h-1.33c-.57,0-.57.19-.57,2.09h1.9v8.35ZM97.88,40.79c0,1.33.37,1.72,1.14,1.72.96,0,1.33-.57,1.33-1.91,0-1.14-.19-1.7-1.14-1.7s-1.33.76-1.33,1.9ZM100.35,45.73c-1.9,0-2.47,0-2.47,1.14v13.5q2.47,0,2.47-.37v-14.26ZM85.9,60.36c2.48,0,2.29,0,2.29-.37v-11.99c.76-.37,1.7-.57,2.29-.57,1.51,0,1.7.76,1.7,3.05v9.88q2.47,0,2.47-.37v-9.31c0-4.01-.37-5.34-3.99-5.34-1.51,0-3.6.39-4.75.96v14.06ZM80.07,60.36q2.29,0,2.29-.37v-20.15q-2.29,0-2.29,1.14v19.38Z"/>
</svg>