<?xml version="1.0" encoding="UTF-8"?>
<svg id="Ebene_1" xmlns="http://www.w3.org/2000/svg" xmlns:xlink="http://www.w3.org/1999/xlink" version="1.1" viewBox="0 0 315 491.89">
  <!-- Generator: Adobe Illustrator 29.4.0, SVG Export Plug-In . SVG Version: 2.1.0 Build 152)  -->
  <defs>
    <style>
      .st0, .st1, .st2 {
        fill: none;
      }

      .st1 {
        stroke-width: 7px;
      }

      .st1, .st2 {
        stroke: #1db100;
      }

      .st3 {
        clip-path: url(#clippath-17);
      }

      .st4 {
        clip-path: url(#clippath-19);
      }

      .st5 {
        clip-path: url(#clippath-11);
      }

      .st6 {
        clip-path: url(#clippath-16);
      }

      .st7 {
        clip-path: url(#clippath-18);
      }

      .st8 {
        clip-path: url(#clippath-10);
      }

      .st9 {
        clip-path: url(#clippath-15);
      }

      .st10 {
        clip-path: url(#clippath-13);
      }

      .st11 {
        clip-path: url(#clippath-14);
      }

      .st12 {
        clip-path: url(#clippath-12);
      }

      .st13 {
        clip-path: url(#clippath-31);
      }

      .st14 {
        clip-path: url(#clippath-32);
      }

      .st15 {
        clip-path: url(#clippath-33);
      }

      .st16 {
        clip-path: url(#clippath-34);
      }

      .st17 {
        clip-path: url(#clippath-35);
      }

      .st18 {
        clip-path: url(#clippath-39);
      }

      .st19 {
        clip-path: url(#clippath-30);
      }

      .st20 {
        clip-path: url(#clippath-36);
      }

      .st21 {
        clip-path: url(#clippath-37);
      }

      .st22 {
        clip-path: url(#clippath-38);
      }

      .st23 {
        clip-path: url(#clippath-27);
      }

      .st24 {
        clip-path: url(#clippath-29);
      }

      .st25 {
        clip-path: url(#clippath-26);
      }

      .st26 {
        clip-path: url(#clippath-28);
      }

      .st27 {
        clip-path: url(#clippath-20);
      }

      .st28 {
        clip-path: url(#clippath-21);
      }

      .st29 {
        clip-path: url(#clippath-22);
      }

      .st30 {
        clip-path: url(#clippath-23);
      }

      .st31 {
        clip-path: url(#clippath-24);
      }

      .st32 {
        clip-path: url(#clippath-25);
      }

      .st33 {
        clip-path: url(#clippath-41);
      }

      .st34 {
        clip-path: url(#clippath-42);
      }

      .st35 {
        clip-path: url(#clippath-43);
      }

      .st36 {
        clip-path: url(#clippath-44);
      }

      .st37 {
        clip-path: url(#clippath-45);
      }

      .st38 {
        clip-path: url(#clippath-49);
      }

      .st39 {
        clip-path: url(#clippath-40);
      }

      .st40 {
        clip-path: url(#clippath-46);
      }

      .st41 {
        clip-path: url(#clippath-47);
      }

      .st42 {
        clip-path: url(#clippath-48);
      }

      .st43 {
        clip-path: url(#clippath-1);
      }

      .st44 {
        clip-path: url(#clippath-3);
      }

      .st45 {
        clip-path: url(#clippath-4);
      }

      .st46 {
        clip-path: url(#clippath-2);
      }

      .st47 {
        clip-path: url(#clippath-7);
      }

      .st48 {
        clip-path: url(#clippath-6);
      }

      .st49 {
        clip-path: url(#clippath-9);
      }

      .st50 {
        clip-path: url(#clippath-8);
      }

      .st51 {
        clip-path: url(#clippath-5);
      }

      .st52 {
        fill: #fff;
      }

      .st2 {
        stroke-width: 1.1px;
      }

      .st53 {
        clip-path: url(#clippath);
      }

      .st54 {
        fill: #1db100;
      }
    </style>
    <clipPath id="clippath">
      <rect class="st0" x="-106" y="-94.89" width="595.28" height="841.89"/>
    </clipPath>
    <clipPath id="clippath-1">
      <rect class="st0" x="19.04" y="15.68" width="279.43" height="460.84"/>
    </clipPath>
    <clipPath id="clippath-2">
      <rect class="st0" x="18.81" y="11.59" width="40.16" height="58.32" transform="translate(-10.69 14.01) rotate(-18)"/>
    </clipPath>
    <clipPath id="clippath-3">
      <rect class="st0" x="-106" y="-94.89" width="595.28" height="841.89"/>
    </clipPath>
    <clipPath id="clippath-4">
      <rect class="st0" x="22.93" y="15.22" width="31.91" height="51.07" transform="translate(-10.69 14.01) rotate(-18)"/>
    </clipPath>
    <clipPath id="clippath-5">
      <rect class="st0" x="-106" y="-94.89" width="595.28" height="841.89"/>
    </clipPath>
    <clipPath id="clippath-6">
      <rect class="st0" x="23.81" y="13.59" width="40.16" height="58.32" transform="translate(-11.06 15.65) rotate(-18)"/>
    </clipPath>
    <clipPath id="clippath-7">
      <rect class="st0" x="-106" y="-94.89" width="595.28" height="841.89"/>
    </clipPath>
    <clipPath id="clippath-8">
      <rect class="st0" x="27.93" y="17.22" width="31.91" height="51.07" transform="translate(-11.06 15.65) rotate(-18)"/>
    </clipPath>
    <clipPath id="clippath-9">
      <rect class="st0" x="-106" y="-94.89" width="595.28" height="841.89"/>
    </clipPath>
    <clipPath id="clippath-10">
      <rect class="st0" x="28.81" y="15.59" width="40.16" height="58.32" transform="translate(-11.44 17.3) rotate(-18)"/>
    </clipPath>
    <clipPath id="clippath-11">
      <rect class="st0" x="-106" y="-94.89" width="595.28" height="841.89"/>
    </clipPath>
    <clipPath id="clippath-12">
      <rect class="st0" x="32.93" y="19.22" width="31.91" height="51.07" transform="translate(-11.44 17.3) rotate(-18)"/>
    </clipPath>
    <clipPath id="clippath-13">
      <rect class="st0" x="-106" y="-94.89" width="595.28" height="841.89"/>
    </clipPath>
    <clipPath id="clippath-14">
      <rect class="st0" x="249.23" y="20.67" width="58.32" height="40.16" transform="translate(153.6 292.92) rotate(-72)"/>
    </clipPath>
    <clipPath id="clippath-15">
      <rect class="st0" x="-106" y="-94.89" width="595.28" height="841.89"/>
    </clipPath>
    <clipPath id="clippath-16">
      <rect class="st0" x="252.85" y="24.8" width="51.07" height="31.91" transform="translate(153.6 292.92) rotate(-72)"/>
    </clipPath>
    <clipPath id="clippath-17">
      <rect class="st0" x="-106" y="-94.89" width="595.28" height="841.89"/>
    </clipPath>
    <clipPath id="clippath-18">
      <rect class="st0" x="244.23" y="22.67" width="58.32" height="40.16" transform="translate(148.25 289.55) rotate(-72)"/>
    </clipPath>
    <clipPath id="clippath-19">
      <rect class="st0" x="-106" y="-94.89" width="595.28" height="841.89"/>
    </clipPath>
    <clipPath id="clippath-20">
      <rect class="st0" x="247.85" y="26.8" width="51.07" height="31.91" transform="translate(148.25 289.55) rotate(-72)"/>
    </clipPath>
    <clipPath id="clippath-21">
      <rect class="st0" x="-106" y="-94.89" width="595.28" height="841.89"/>
    </clipPath>
    <clipPath id="clippath-22">
      <rect class="st0" x="239.23" y="24.67" width="58.32" height="40.16" transform="translate(142.89 286.17) rotate(-72)"/>
    </clipPath>
    <clipPath id="clippath-23">
      <rect class="st0" x="-106" y="-94.89" width="595.28" height="841.89"/>
    </clipPath>
    <clipPath id="clippath-24">
      <rect class="st0" x="242.85" y="28.8" width="51.07" height="31.91" transform="translate(142.89 286.17) rotate(-72)"/>
    </clipPath>
    <clipPath id="clippath-25">
      <rect class="st0" x="-106" y="-94.89" width="595.28" height="841.89"/>
    </clipPath>
    <clipPath id="clippath-26">
      <rect class="st0" x="258.31" y="420.5" width="40.16" height="58.32" transform="translate(-125.33 108.03) rotate(-18)"/>
    </clipPath>
    <clipPath id="clippath-27">
      <rect class="st0" x="-106" y="-94.89" width="595.28" height="841.89"/>
    </clipPath>
    <clipPath id="clippath-28">
      <rect class="st0" x="262.43" y="424.12" width="31.91" height="51.07" transform="translate(-125.33 108.03) rotate(-18)"/>
    </clipPath>
    <clipPath id="clippath-29">
      <rect class="st0" x="-106" y="-94.89" width="595.28" height="841.89"/>
    </clipPath>
    <clipPath id="clippath-30">
      <rect class="st0" x="253.31" y="418.5" width="40.16" height="58.32" transform="translate(-124.95 106.39) rotate(-18)"/>
    </clipPath>
    <clipPath id="clippath-31">
      <rect class="st0" x="-106" y="-94.89" width="595.28" height="841.89"/>
    </clipPath>
    <clipPath id="clippath-32">
      <rect class="st0" x="257.43" y="422.12" width="31.91" height="51.07" transform="translate(-124.95 106.39) rotate(-18)"/>
    </clipPath>
    <clipPath id="clippath-33">
      <rect class="st0" x="-106" y="-94.89" width="595.28" height="841.89"/>
    </clipPath>
    <clipPath id="clippath-34">
      <rect class="st0" x="248.31" y="416.5" width="40.16" height="58.32" transform="translate(-124.58 104.75) rotate(-18)"/>
    </clipPath>
    <clipPath id="clippath-35">
      <rect class="st0" x="-106" y="-94.89" width="595.28" height="841.89"/>
    </clipPath>
    <clipPath id="clippath-36">
      <rect class="st0" x="252.43" y="420.12" width="31.91" height="51.07" transform="translate(-124.58 104.75) rotate(-18)"/>
    </clipPath>
    <clipPath id="clippath-37">
      <rect class="st0" x="-106" y="-94.89" width="595.28" height="841.89"/>
    </clipPath>
    <clipPath id="clippath-38">
      <rect class="st0" x="9.73" y="429.58" width="58.32" height="40.16" transform="translate(-400.78 347.69) rotate(-72)"/>
    </clipPath>
    <clipPath id="clippath-39">
      <rect class="st0" x="-106" y="-94.89" width="595.28" height="841.89"/>
    </clipPath>
    <clipPath id="clippath-40">
      <rect class="st0" x="13.35" y="433.7" width="51.07" height="31.91" transform="translate(-400.78 347.69) rotate(-72)"/>
    </clipPath>
    <clipPath id="clippath-41">
      <rect class="st0" x="-106" y="-94.89" width="595.28" height="841.89"/>
    </clipPath>
    <clipPath id="clippath-42">
      <rect class="st0" x="14.73" y="427.58" width="58.32" height="40.16" transform="translate(-395.42 351.06) rotate(-72)"/>
    </clipPath>
    <clipPath id="clippath-43">
      <rect class="st0" x="-106" y="-94.89" width="595.28" height="841.89"/>
    </clipPath>
    <clipPath id="clippath-44">
      <rect class="st0" x="18.35" y="431.7" width="51.07" height="31.91" transform="translate(-395.42 351.06) rotate(-72)"/>
    </clipPath>
    <clipPath id="clippath-45">
      <rect class="st0" x="-106" y="-94.89" width="595.28" height="841.89"/>
    </clipPath>
    <clipPath id="clippath-46">
      <rect class="st0" x="19.73" y="425.58" width="58.32" height="40.16" transform="translate(-390.06 354.44) rotate(-72)"/>
    </clipPath>
    <clipPath id="clippath-47">
      <rect class="st0" x="-106" y="-94.89" width="595.28" height="841.89"/>
    </clipPath>
    <clipPath id="clippath-48">
      <rect class="st0" x="23.35" y="429.7" width="51.07" height="31.91" transform="translate(-390.06 354.43) rotate(-72)"/>
    </clipPath>
    <clipPath id="clippath-49">
      <rect class="st0" x="-106" y="-94.89" width="595.28" height="841.89"/>
    </clipPath>
  </defs>
  <g class="st53">
    <rect class="st52" x="-106" y="-94.89" width="596" height="842"/>
  </g>
  <g class="st43">
    <path class="st52" d="M46.47,20.18h224.57c6.73,0,10.77,0,13.46,1.12,3.88,1.41,6.94,4.47,8.35,8.35,1.12,2.69,1.12,6.73,1.12,13.46v405.98c0,6.73,0,10.77-1.12,13.46-1.41,3.88-4.47,6.94-8.35,8.35-2.69,1.12-6.73,1.12-13.46,1.12H46.47c-6.73,0-10.77,0-13.46-1.12-3.88-1.41-6.94-4.47-8.35-8.35-1.12-2.69-1.12-6.73-1.12-13.46V43.11c0-6.73,0-10.77,1.12-13.46,1.41-3.88,4.47-6.94,8.35-8.35,2.69-1.12,6.73-1.12,13.46-1.12Z"/>
    <path class="st1" d="M46.47,20.18h224.57c6.73,0,10.77,0,13.46,1.12,3.88,1.41,6.94,4.47,8.35,8.35,1.12,2.69,1.12,6.73,1.12,13.46v405.98c0,6.73,0,10.77-1.12,13.46-1.41,3.88-4.47,6.94-8.35,8.35-2.69,1.12-6.73,1.12-13.46,1.12H46.47c-6.73,0-10.77,0-13.46-1.12-3.88-1.41-6.94-4.47-8.35-8.35-1.12-2.69-1.12-6.73-1.12-13.46V43.11c0-6.73,0-10.77,1.12-13.46,1.41-3.88,4.47-6.94,8.35-8.35,2.69-1.12,6.73-1.12,13.46-1.12Z"/>
  </g>
  <g class="st46">
    <g class="st44">
      <path class="st52" d="M20.59,17.61l19.5-6.34c2.32-.76,3.72-1.21,4.78-1.12,1.5.05,2.9.77,3.82,1.95.69.8,1.14,2.2,1.9,4.52l11.95,36.77c.76,2.32,1.21,3.72,1.12,4.78-.05,1.5-.77,2.9-1.95,3.82-.8.69-2.2,1.14-4.52,1.9l-19.5,6.34c-2.32.76-3.72,1.21-4.78,1.12-1.5-.05-2.9-.77-3.82-1.95-.69-.8-1.14-2.2-1.9-4.52L15.24,28.11c-.76-2.32-1.21-3.72-1.12-4.78.05-1.5.77-2.9,1.95-3.82.8-.69,2.2-1.14,4.52-1.9Z"/>
      <path class="st2" d="M20.59,17.61l19.5-6.34c2.32-.76,3.72-1.21,4.78-1.12,1.5.05,2.9.77,3.82,1.95.69.8,1.14,2.2,1.9,4.52l11.95,36.77c.76,2.32,1.21,3.72,1.12,4.78-.05,1.5-.77,2.9-1.95,3.82-.8.69-2.2,1.14-4.52,1.9l-19.5,6.34c-2.32.76-3.72,1.21-4.78,1.12-1.5-.05-2.9-.77-3.82-1.95-.69-.8-1.14-2.2-1.9-4.52L15.24,28.11c-.76-2.32-1.21-3.72-1.12-4.78.05-1.5.77-2.9,1.95-3.82.8-.69,2.2-1.14,4.52-1.9Z"/>
    </g>
  </g>
  <g class="st45">
    <g class="st51">
      <path class="st54" d="M21.74,20.53l19.13-6.21c1.37-.44,2.19-.71,2.81-.66.88.03,1.71.45,2.25,1.15.41.47.67,1.29,1.12,2.66l12.13,37.35c.44,1.37.71,2.19.66,2.81-.03.88-.45,1.71-1.15,2.25-.47.41-1.29.67-2.66,1.12l-19.13,6.21c-1.37.44-2.19.71-2.81.66-.88-.03-1.71-.45-2.25-1.15-.41-.47-.67-1.29-1.12-2.66l-12.13-37.35c-.44-1.37-.71-2.19-.66-2.81.03-.88.45-1.71,1.15-2.25.47-.41,1.29-.67,2.66-1.12Z"/>
    </g>
  </g>
  <g class="st48">
    <g class="st47">
      <path class="st52" d="M25.59,19.61l19.5-6.34c2.32-.76,3.72-1.21,4.78-1.12,1.5.05,2.9.77,3.82,1.95.69.8,1.14,2.2,1.9,4.52l11.95,36.77c.76,2.32,1.21,3.72,1.12,4.78-.05,1.5-.77,2.9-1.95,3.82-.8.69-2.2,1.14-4.52,1.9l-19.5,6.34c-2.32.76-3.72,1.21-4.78,1.12-1.5-.05-2.9-.77-3.82-1.95-.69-.8-1.14-2.2-1.9-4.52l-11.95-36.77c-.76-2.32-1.21-3.72-1.12-4.78.05-1.5.77-2.9,1.95-3.82.8-.69,2.2-1.14,4.52-1.9Z"/>
      <path class="st2" d="M25.59,19.61l19.5-6.34c2.32-.76,3.72-1.21,4.78-1.12,1.5.05,2.9.77,3.82,1.95.69.8,1.14,2.2,1.9,4.52l11.95,36.77c.76,2.32,1.21,3.72,1.12,4.78-.05,1.5-.77,2.9-1.95,3.82-.8.69-2.2,1.14-4.52,1.9l-19.5,6.34c-2.32.76-3.72,1.21-4.78,1.12-1.5-.05-2.9-.77-3.82-1.95-.69-.8-1.14-2.2-1.9-4.52l-11.95-36.77c-.76-2.32-1.21-3.72-1.12-4.78.05-1.5.77-2.9,1.95-3.82.8-.69,2.2-1.14,4.52-1.9Z"/>
    </g>
  </g>
  <g class="st50">
    <g class="st49">
      <path class="st54" d="M26.74,22.53l19.13-6.21c1.37-.44,2.19-.71,2.81-.66.88.03,1.71.45,2.25,1.15.41.47.67,1.29,1.12,2.66l12.13,37.35c.44,1.37.71,2.19.66,2.81-.03.88-.45,1.71-1.15,2.25-.47.41-1.29.67-2.66,1.12l-19.13,6.21c-1.37.44-2.19.71-2.81.66-.88-.03-1.71-.45-2.25-1.15-.41-.47-.67-1.29-1.12-2.66l-12.13-37.35c-.44-1.37-.71-2.19-.66-2.81.03-.88.45-1.71,1.15-2.25.47-.41,1.29-.67,2.66-1.12Z"/>
    </g>
  </g>
  <g class="st8">
    <g class="st5">
      <path class="st52" d="M30.59,21.61l19.5-6.34c2.32-.76,3.72-1.21,4.78-1.12,1.5.05,2.9.77,3.82,1.95.69.8,1.14,2.2,1.9,4.52l11.95,36.77c.76,2.32,1.21,3.72,1.12,4.78-.05,1.5-.77,2.9-1.95,3.82-.8.69-2.2,1.14-4.52,1.9l-19.5,6.34c-2.32.76-3.72,1.21-4.78,1.12-1.5-.05-2.9-.77-3.82-1.95-.69-.8-1.14-2.2-1.9-4.52l-11.95-36.77c-.76-2.32-1.21-3.72-1.12-4.78.05-1.5.77-2.9,1.95-3.82.8-.69,2.2-1.14,4.52-1.9Z"/>
      <path class="st2" d="M30.59,21.61l19.5-6.34c2.32-.76,3.72-1.21,4.78-1.12,1.5.05,2.9.77,3.82,1.95.69.8,1.14,2.2,1.9,4.52l11.95,36.77c.76,2.32,1.21,3.72,1.12,4.78-.05,1.5-.77,2.9-1.95,3.82-.8.69-2.2,1.14-4.52,1.9l-19.5,6.34c-2.32.76-3.72,1.21-4.78,1.12-1.5-.05-2.9-.77-3.82-1.95-.69-.8-1.14-2.2-1.9-4.52l-11.95-36.77c-.76-2.32-1.21-3.72-1.12-4.78.05-1.5.77-2.9,1.95-3.82.8-.69,2.2-1.14,4.52-1.9Z"/>
    </g>
  </g>
  <g class="st12">
    <g class="st10">
      <path class="st54" d="M31.74,24.53l19.13-6.21c1.37-.44,2.19-.71,2.81-.66.88.03,1.71.45,2.25,1.15.41.47.67,1.29,1.12,2.66l12.13,37.35c.44,1.37.71,2.19.66,2.81-.03.88-.45,1.71-1.15,2.25-.47.41-1.29.67-2.66,1.12l-19.13,6.21c-1.37.44-2.19.71-2.81.66-.88-.03-1.71-.45-2.25-1.15-.41-.47-.67-1.29-1.12-2.66l-12.13-37.35c-.44-1.37-.71-2.19-.66-2.81.03-.88.45-1.71,1.15-2.25.47-.41,1.29-.67,2.66-1.12Z"/>
    </g>
  </g>
  <g class="st11">
    <g class="st9">
      <path class="st52" d="M296.68,17.61l-19.5-6.34c-2.32-.76-3.72-1.21-4.78-1.12-1.5.05-2.9.77-3.82,1.95-.69.8-1.14,2.2-1.9,4.52l-11.95,36.77c-.76,2.32-1.21,3.72-1.12,4.78.05,1.5.77,2.9,1.95,3.82.8.69,2.2,1.14,4.52,1.9l19.5,6.34c2.32.76,3.72,1.21,4.78,1.12,1.5-.05,2.9-.77,3.82-1.95.69-.8,1.14-2.2,1.9-4.52l11.95-36.77c.76-2.32,1.21-3.72,1.12-4.78-.05-1.5-.77-2.9-1.95-3.82-.8-.69-2.2-1.14-4.52-1.9Z"/>
      <path class="st2" d="M296.68,17.61l-19.5-6.34c-2.32-.76-3.72-1.21-4.78-1.12-1.5.05-2.9.77-3.82,1.95-.69.8-1.14,2.2-1.9,4.52l-11.95,36.77c-.76,2.32-1.21,3.72-1.12,4.78.05,1.5.77,2.9,1.95,3.82.8.69,2.2,1.14,4.52,1.9l19.5,6.34c2.32.76,3.72,1.21,4.78,1.12,1.5-.05,2.9-.77,3.82-1.95.69-.8,1.14-2.2,1.9-4.52l11.95-36.77c.76-2.32,1.21-3.72,1.12-4.78-.05-1.5-.77-2.9-1.95-3.82-.8-.69-2.2-1.14-4.52-1.9Z"/>
    </g>
  </g>
  <g class="st6">
    <g class="st3">
      <path class="st54" d="M295.53,20.53l-19.13-6.21c-1.37-.44-2.19-.71-2.81-.66-.88.03-1.71.45-2.25,1.15-.41.47-.67,1.29-1.12,2.66l-12.13,37.35c-.44,1.37-.71,2.19-.66,2.81.03.88.45,1.71,1.15,2.25.47.41,1.29.67,2.66,1.12l19.13,6.21c1.37.44,2.19.71,2.81.66.88-.03,1.71-.45,2.25-1.15.41-.47.67-1.29,1.12-2.66l12.13-37.35c.44-1.37.71-2.19.66-2.81-.03-.88-.45-1.71-1.15-2.25-.47-.41-1.29-.67-2.66-1.12Z"/>
    </g>
  </g>
  <g class="st7">
    <g class="st4">
      <path class="st52" d="M291.68,19.61l-19.5-6.34c-2.32-.76-3.72-1.21-4.78-1.12-1.5.05-2.9.77-3.82,1.95-.69.8-1.14,2.2-1.9,4.52l-11.95,36.77c-.76,2.32-1.21,3.72-1.12,4.78.05,1.5.77,2.9,1.95,3.82.8.69,2.2,1.14,4.52,1.9l19.5,6.34c2.32.76,3.72,1.21,4.78,1.12,1.5-.05,2.9-.77,3.82-1.95.69-.8,1.14-2.2,1.9-4.52l11.95-36.77c.76-2.32,1.21-3.72,1.12-4.78-.05-1.5-.77-2.9-1.95-3.82-.8-.69-2.2-1.14-4.52-1.9Z"/>
      <path class="st2" d="M291.68,19.61l-19.5-6.34c-2.32-.76-3.72-1.21-4.78-1.12-1.5.05-2.9.77-3.82,1.95-.69.8-1.14,2.2-1.9,4.52l-11.95,36.77c-.76,2.32-1.21,3.72-1.12,4.78.05,1.5.77,2.9,1.95,3.82.8.69,2.2,1.14,4.52,1.9l19.5,6.34c2.32.76,3.72,1.21,4.78,1.12,1.5-.05,2.9-.77,3.82-1.95.69-.8,1.14-2.2,1.9-4.52l11.95-36.77c.76-2.32,1.21-3.72,1.12-4.78-.05-1.5-.77-2.9-1.95-3.82-.8-.69-2.2-1.14-4.52-1.9Z"/>
    </g>
  </g>
  <g class="st27">
    <g class="st28">
      <path class="st54" d="M290.53,22.53l-19.13-6.21c-1.37-.44-2.19-.71-2.81-.66-.88.03-1.71.45-2.25,1.15-.41.47-.67,1.29-1.12,2.66l-12.13,37.35c-.44,1.37-.71,2.19-.66,2.81.03.88.45,1.71,1.15,2.25.47.41,1.29.67,2.66,1.12l19.13,6.21c1.37.44,2.19.71,2.81.66.88-.03,1.71-.45,2.25-1.15.41-.47.67-1.29,1.12-2.66l12.13-37.35c.44-1.37.71-2.19.66-2.81-.03-.88-.45-1.71-1.15-2.25-.47-.41-1.29-.67-2.66-1.12Z"/>
    </g>
  </g>
  <g class="st29">
    <g class="st30">
      <path class="st52" d="M286.68,21.61l-19.5-6.34c-2.32-.76-3.72-1.21-4.78-1.12-1.5.05-2.9.77-3.82,1.95-.69.8-1.14,2.2-1.9,4.52l-11.95,36.77c-.76,2.32-1.21,3.72-1.12,4.78.05,1.5.77,2.9,1.95,3.82.8.69,2.2,1.14,4.52,1.9l19.5,6.34c2.32.76,3.72,1.21,4.78,1.12,1.5-.05,2.9-.77,3.82-1.95.69-.8,1.14-2.2,1.9-4.52l11.95-36.77c.76-2.32,1.21-3.72,1.12-4.78-.05-1.5-.77-2.9-1.95-3.82-.8-.69-2.2-1.14-4.52-1.9Z"/>
      <path class="st2" d="M286.68,21.61l-19.5-6.34c-2.32-.76-3.72-1.21-4.78-1.12-1.5.05-2.9.77-3.82,1.95-.69.8-1.14,2.2-1.9,4.52l-11.95,36.77c-.76,2.32-1.21,3.72-1.12,4.78.05,1.5.77,2.9,1.95,3.82.8.69,2.2,1.14,4.52,1.9l19.5,6.34c2.32.76,3.72,1.21,4.78,1.12,1.5-.05,2.9-.77,3.82-1.95.69-.8,1.14-2.2,1.9-4.52l11.95-36.77c.76-2.32,1.21-3.72,1.12-4.78-.05-1.5-.77-2.9-1.95-3.82-.8-.69-2.2-1.14-4.52-1.9Z"/>
    </g>
  </g>
  <g class="st31">
    <g class="st32">
      <path class="st54" d="M285.53,24.53l-19.13-6.21c-1.37-.44-2.19-.71-2.81-.66-.88.03-1.71.45-2.25,1.15-.41.47-.67,1.29-1.12,2.66l-12.13,37.35c-.44,1.37-.71,2.19-.66,2.81.03.88.45,1.71,1.15,2.25.47.41,1.29.67,2.66,1.12l19.13,6.21c1.37.44,2.19.71,2.81.66.88-.03,1.71-.45,2.25-1.15.41-.47.67-1.29,1.12-2.66l12.14-37.35c.44-1.37.71-2.19.66-2.81-.03-.88-.45-1.71-1.15-2.25-.47-.41-1.29-.67-2.66-1.12Z"/>
    </g>
  </g>
  <g class="st25">
    <g class="st23">
      <path class="st52" d="M296.68,472.79l-19.5,6.34c-2.32.76-3.72,1.21-4.78,1.12-1.5-.05-2.9-.77-3.82-1.95-.69-.8-1.14-2.2-1.9-4.52l-11.95-36.77c-.76-2.32-1.21-3.72-1.12-4.78.05-1.5.77-2.9,1.95-3.82.8-.69,2.2-1.14,4.52-1.9l19.5-6.34c2.32-.76,3.72-1.21,4.78-1.12,1.5.05,2.9.77,3.82,1.95.69.8,1.14,2.2,1.9,4.52l11.95,36.77c.76,2.32,1.21,3.72,1.12,4.78-.05,1.5-.77,2.9-1.95,3.82-.8.69-2.2,1.14-4.52,1.9Z"/>
      <path class="st2" d="M296.68,472.79l-19.5,6.34c-2.32.76-3.72,1.21-4.78,1.12-1.5-.05-2.9-.77-3.82-1.95-.69-.8-1.14-2.2-1.9-4.52l-11.95-36.77c-.76-2.32-1.21-3.72-1.12-4.78.05-1.5.77-2.9,1.95-3.82.8-.69,2.2-1.14,4.52-1.9l19.5-6.34c2.32-.76,3.72-1.21,4.78-1.12,1.5.05,2.9.77,3.82,1.95.69.8,1.14,2.2,1.9,4.52l11.95,36.77c.76,2.32,1.21,3.72,1.12,4.78-.05,1.5-.77,2.9-1.95,3.82-.8.69-2.2,1.14-4.52,1.9Z"/>
    </g>
  </g>
  <g class="st26">
    <g class="st24">
      <path class="st54" d="M295.53,469.88l-19.13,6.21c-1.37.44-2.19.71-2.81.66-.88-.03-1.71-.45-2.25-1.15-.41-.47-.67-1.29-1.12-2.66l-12.13-37.35c-.44-1.37-.71-2.19-.66-2.81.03-.88.45-1.71,1.15-2.25.47-.41,1.29-.67,2.66-1.12l19.13-6.21c1.37-.44,2.19-.71,2.81-.66.88.03,1.71.45,2.25,1.15.41.47.67,1.29,1.12,2.66l12.13,37.35c.44,1.37.71,2.19.66,2.81-.03.88-.45,1.71-1.15,2.25-.47.41-1.29.67-2.66,1.12Z"/>
    </g>
  </g>
  <g class="st19">
    <g class="st13">
      <path class="st52" d="M291.68,470.79l-19.5,6.34c-2.32.76-3.72,1.21-4.78,1.12-1.5-.05-2.9-.77-3.82-1.95-.69-.8-1.14-2.2-1.9-4.52l-11.95-36.77c-.76-2.32-1.21-3.72-1.12-4.78.05-1.5.77-2.9,1.95-3.82.8-.69,2.2-1.14,4.52-1.9l19.5-6.34c2.32-.76,3.72-1.21,4.78-1.12,1.5.05,2.9.77,3.82,1.95.69.8,1.14,2.2,1.9,4.52l11.95,36.77c.76,2.32,1.21,3.72,1.12,4.78-.05,1.5-.77,2.9-1.95,3.82-.8.69-2.2,1.14-4.52,1.9Z"/>
      <path class="st2" d="M291.68,470.79l-19.5,6.34c-2.32.76-3.72,1.21-4.78,1.12-1.5-.05-2.9-.77-3.82-1.95-.69-.8-1.14-2.2-1.9-4.52l-11.95-36.77c-.76-2.32-1.21-3.72-1.12-4.78.05-1.5.77-2.9,1.95-3.82.8-.69,2.2-1.14,4.52-1.9l19.5-6.34c2.32-.76,3.72-1.21,4.78-1.12,1.5.05,2.9.77,3.82,1.95.69.8,1.14,2.2,1.9,4.52l11.95,36.77c.76,2.32,1.21,3.72,1.12,4.78-.05,1.5-.77,2.9-1.95,3.82-.8.69-2.2,1.14-4.52,1.9Z"/>
    </g>
  </g>
  <g class="st14">
    <g class="st15">
      <path class="st54" d="M290.53,467.88l-19.13,6.21c-1.37.44-2.19.71-2.81.66-.88-.03-1.71-.45-2.25-1.15-.41-.47-.67-1.29-1.12-2.66l-12.13-37.35c-.44-1.37-.71-2.19-.66-2.81.03-.88.45-1.71,1.15-2.25.47-.41,1.29-.67,2.66-1.12l19.13-6.21c1.37-.44,2.19-.71,2.81-.66.88.03,1.71.45,2.25,1.15.41.47.67,1.29,1.12,2.66l12.13,37.35c.44,1.37.71,2.19.66,2.81-.03.88-.45,1.71-1.15,2.25-.47.41-1.29.67-2.66,1.12Z"/>
    </g>
  </g>
  <g class="st16">
    <g class="st17">
      <path class="st52" d="M286.68,468.79l-19.5,6.34c-2.32.76-3.72,1.21-4.78,1.12-1.5-.05-2.9-.77-3.82-1.95-.69-.8-1.14-2.2-1.9-4.52l-11.95-36.77c-.76-2.32-1.21-3.72-1.12-4.78.05-1.5.77-2.9,1.95-3.82.8-.69,2.2-1.14,4.52-1.9l19.5-6.34c2.32-.76,3.72-1.21,4.78-1.12,1.5.05,2.9.77,3.82,1.95.69.8,1.14,2.2,1.9,4.52l11.95,36.77c.76,2.32,1.21,3.72,1.12,4.78-.05,1.5-.77,2.9-1.95,3.82-.8.69-2.2,1.14-4.52,1.9Z"/>
      <path class="st2" d="M286.68,468.79l-19.5,6.34c-2.32.76-3.72,1.21-4.78,1.12-1.5-.05-2.9-.77-3.82-1.95-.69-.8-1.14-2.2-1.9-4.52l-11.95-36.77c-.76-2.32-1.21-3.72-1.12-4.78.05-1.5.77-2.9,1.95-3.82.8-.69,2.2-1.14,4.52-1.9l19.5-6.34c2.32-.76,3.72-1.21,4.78-1.12,1.5.05,2.9.77,3.82,1.95.69.8,1.14,2.2,1.9,4.52l11.95,36.77c.76,2.32,1.21,3.72,1.12,4.78-.05,1.5-.77,2.9-1.95,3.82-.8.69-2.2,1.14-4.52,1.9Z"/>
    </g>
  </g>
  <g class="st20">
    <g class="st21">
      <path class="st54" d="M285.53,465.88l-19.13,6.21c-1.37.44-2.19.71-2.81.66-.88-.03-1.71-.45-2.25-1.15-.41-.47-.67-1.29-1.12-2.66l-12.13-37.35c-.44-1.37-.71-2.19-.66-2.81.03-.88.45-1.71,1.15-2.25.47-.41,1.29-.67,2.66-1.12l19.13-6.21c1.37-.44,2.19-.71,2.81-.66.88.03,1.71.45,2.25,1.15.41.47.67,1.29,1.12,2.66l12.14,37.35c.44,1.37.71,2.19.66,2.81-.03.88-.45,1.71-1.15,2.25-.47.41-1.29.67-2.66,1.12Z"/>
    </g>
  </g>
  <g class="st22">
    <g class="st18">
      <path class="st52" d="M20.59,472.79l19.5,6.34c2.32.76,3.72,1.21,4.78,1.12,1.5-.05,2.9-.77,3.82-1.95.69-.8,1.14-2.2,1.9-4.52l11.95-36.77c.76-2.32,1.21-3.72,1.12-4.78-.05-1.5-.77-2.9-1.95-3.82-.8-.69-2.2-1.14-4.52-1.9l-19.5-6.34c-2.32-.76-3.72-1.21-4.78-1.12-1.5.05-2.9.77-3.82,1.95-.69.8-1.14,2.2-1.9,4.52l-11.95,36.77c-.76,2.32-1.21,3.72-1.12,4.78.05,1.5.77,2.9,1.95,3.82.8.69,2.2,1.14,4.52,1.9Z"/>
      <path class="st2" d="M20.59,472.79l19.5,6.34c2.32.76,3.72,1.21,4.78,1.12,1.5-.05,2.9-.77,3.82-1.95.69-.8,1.14-2.2,1.9-4.52l11.95-36.77c.76-2.32,1.21-3.72,1.12-4.78-.05-1.5-.77-2.9-1.95-3.82-.8-.69-2.2-1.14-4.52-1.9l-19.5-6.34c-2.32-.76-3.72-1.21-4.78-1.12-1.5.05-2.9.77-3.82,1.95-.69.8-1.14,2.2-1.9,4.52l-11.95,36.77c-.76,2.32-1.21,3.72-1.12,4.78.05,1.5.77,2.9,1.95,3.82.8.69,2.2,1.14,4.52,1.9Z"/>
    </g>
  </g>
  <g class="st39">
    <g class="st33">
      <path class="st54" d="M21.74,469.88l19.13,6.21c1.37.44,2.19.71,2.81.66.88-.03,1.71-.45,2.25-1.15.41-.47.67-1.29,1.12-2.66l12.13-37.35c.44-1.37.71-2.19.66-2.81-.03-.88-.45-1.71-1.15-2.25-.47-.41-1.29-.67-2.66-1.12l-19.13-6.21c-1.37-.44-2.19-.71-2.81-.66-.88.03-1.71.45-2.25,1.15-.41.47-.67,1.29-1.12,2.66l-12.13,37.35c-.44,1.37-.71,2.19-.66,2.81.03.88.45,1.71,1.15,2.25.47.41,1.29.67,2.66,1.12Z"/>
    </g>
  </g>
  <g class="st34">
    <g class="st35">
      <path class="st52" d="M25.59,470.79l19.5,6.34c2.32.76,3.72,1.21,4.78,1.12,1.5-.05,2.9-.77,3.82-1.95.69-.8,1.14-2.2,1.9-4.52l11.95-36.77c.76-2.32,1.21-3.72,1.12-4.78-.05-1.5-.77-2.9-1.95-3.82-.8-.69-2.2-1.14-4.52-1.9l-19.5-6.34c-2.32-.76-3.72-1.21-4.78-1.12-1.5.05-2.9.77-3.82,1.95-.69.8-1.14,2.2-1.9,4.52l-11.95,36.77c-.76,2.32-1.21,3.72-1.12,4.78.05,1.5.77,2.9,1.95,3.82.8.69,2.2,1.14,4.52,1.9Z"/>
      <path class="st2" d="M25.59,470.79l19.5,6.34c2.32.76,3.72,1.21,4.78,1.12,1.5-.05,2.9-.77,3.82-1.95.69-.8,1.14-2.2,1.9-4.52l11.95-36.77c.76-2.32,1.21-3.72,1.12-4.78-.05-1.5-.77-2.9-1.95-3.82-.8-.69-2.2-1.14-4.52-1.9l-19.5-6.34c-2.32-.76-3.72-1.21-4.78-1.12-1.5.05-2.9.77-3.82,1.95-.69.8-1.14,2.2-1.9,4.52l-11.95,36.77c-.76,2.32-1.21,3.72-1.12,4.78.05,1.5.77,2.9,1.95,3.82.8.69,2.2,1.14,4.52,1.9Z"/>
    </g>
  </g>
  <g class="st36">
    <g class="st37">
      <path class="st54" d="M26.74,467.88l19.13,6.21c1.37.44,2.19.71,2.81.66.88-.03,1.71-.45,2.25-1.15.41-.47.67-1.29,1.12-2.66l12.13-37.35c.44-1.37.71-2.19.66-2.81-.03-.88-.45-1.71-1.15-2.25-.47-.41-1.29-.67-2.66-1.12l-19.13-6.21c-1.37-.44-2.19-.71-2.81-.66-.88.03-1.71.45-2.25,1.15-.41.47-.67,1.29-1.12,2.66l-12.13,37.35c-.44,1.37-.71,2.19-.66,2.81.03.88.45,1.71,1.15,2.25.47.41,1.29.67,2.66,1.12Z"/>
    </g>
  </g>
  <g class="st40">
    <g class="st41">
      <path class="st52" d="M30.59,468.79l19.5,6.34c2.32.76,3.72,1.21,4.78,1.12,1.5-.05,2.9-.77,3.82-1.95.69-.8,1.14-2.2,1.9-4.52l11.95-36.77c.76-2.32,1.21-3.72,1.12-4.78-.05-1.5-.77-2.9-1.95-3.82-.8-.69-2.2-1.14-4.52-1.9l-19.5-6.34c-2.32-.76-3.72-1.21-4.78-1.12-1.5.05-2.9.77-3.82,1.95-.69.8-1.14,2.2-1.9,4.52l-11.95,36.77c-.76,2.32-1.21,3.72-1.12,4.78.05,1.5.77,2.9,1.95,3.82.8.69,2.2,1.14,4.52,1.9Z"/>
      <path class="st2" d="M30.59,468.79l19.5,6.34c2.32.76,3.72,1.21,4.78,1.12,1.5-.05,2.9-.77,3.82-1.95.69-.8,1.14-2.2,1.9-4.52l11.95-36.77c.76-2.32,1.21-3.72,1.12-4.78-.05-1.5-.77-2.9-1.95-3.82-.8-.69-2.2-1.14-4.52-1.9l-19.5-6.34c-2.32-.76-3.72-1.21-4.78-1.12-1.5.05-2.9.77-3.82,1.95-.69.8-1.14,2.2-1.9,4.52l-11.95,36.77c-.76,2.32-1.21,3.72-1.12,4.78.05,1.5.77,2.9,1.95,3.82.8.69,2.2,1.14,4.52,1.9Z"/>
    </g>
  </g>
  <g class="st42">
    <g class="st38">
      <path class="st54" d="M31.74,465.88l19.13,6.21c1.37.44,2.19.71,2.81.66.88-.03,1.71-.45,2.25-1.15.41-.47.67-1.29,1.12-2.66l12.13-37.35c.44-1.37.71-2.19.66-2.81-.03-.88-.45-1.71-1.15-2.25-.47-.41-1.29-.67-2.66-1.12l-19.13-6.21c-1.37-.44-2.19-.71-2.81-.66-.88.03-1.71.45-2.25,1.15-.41.47-.67,1.29-1.12,2.66l-12.13,37.35c-.44,1.37-.71,2.19-.66,2.81.03.88.45,1.71,1.15,2.25.47.41,1.29.67,2.66,1.12Z"/>
    </g>
  </g>
</svg>